<svg xmlns="http://www.w3.org/2000/svg" width="50%" height="50" fill="none" viewBox="0 0 1000 600"><rect width="1000" height="600" x="0" y="0" fill="#ffffff"/><rect width="333.3333333333333" height="333.3333333333333" rx="13.333333333333334" ry="13.333333333333334" y="247.22222103542677" fill="#00aaaa" transform="matrix(0.5555555894639778,0,0,0.5555555894639778,0,70.06171784577556)" x="224.99993896484375"/><path d="M403.6457683720447 488.8888967443388L379.282342517831 488.8888967443388Q348.4374352012137 488.8888967443388 333.9698426512056 477.95139677653265Q319.4733149160975 467.0138968087265 319.4733149160975 444.2997765052138L319.4733149160975 444.2997765052138Q319.4733149160975 438.88889689151074 320.7464630604982 433.2754709821076L320.7464630604982 433.2754709821076L354.0797962957169 433.2754709821076Q353.64576851921663 435.9664431964091 353.44322222351656 438.48380430011053Q353.2406759278164 440.9722302187119 353.2406759278164 442.65047095451285L353.2406759278164 442.65047095451285Q353.2406759278164 454.10880425411926 361.7765555323212 457.9571838724214Q370.312435136826 461.8055634907236 384.8957684272342 461.8055634907236L384.8957684272342 461.8055634907236L398.0323424626415 461.8055634907236Q415.7406757438515 461.8055634907236 423.11914794435563 456.0763968409204Q430.52655532995976 450.3472301911172 430.52655532995976 434.5196839414083L430.52655532995976 434.5196839414083L430.52655532995976 338.8888971858547L463.85988856517844 338.8888971858547L463.85988856517844 434.5196839414083Q463.85988856517844 452.83565610971857 458.2464626557753 464.9305634815254Q452.60410156127216 477.02547085333214 439.4964627109648 482.95718379883544Q426.35988867555744 488.8888967443388 403.6457683720447 488.8888967443388L403.6457683720447 488.8888967443388Z " fill="#ffffff" transform="matrix(0.5555555894639778,0,0,0.5555555894639778,0,70.06171784577556)"/><path d="M725.8390514530994 488.8888967443388L701.4756255988857 488.8888967443388Q670.6307182822684 488.8888967443388 656.1631257322604 477.95139677653265Q641.6665979971522 467.0138968087265 641.6665979971522 444.2997765052138L641.6665979971522 444.2997765052138Q641.6665979971522 438.88889689151074 642.9397461415529 433.2754709821076L642.9397461415529 433.2754709821076L676.2730793767716 433.2754709821076Q675.8390516002714 435.9664431964091 675.6365053045713 438.48380430011053Q675.4339590088712 440.9722302187119 675.4339590088712 442.65047095451285L675.4339590088712 442.65047095451285Q675.4339590088712 454.10880425411926 683.9698386133759 457.9571838724214Q692.5057182178807 461.8055634907236 707.0890515082889 461.8055634907236L707.0890515082889 461.8055634907236L720.2256255436962 461.8055634907236Q737.9339588249062 461.8055634907236 745.3124310254103 456.0763968409204Q752.7198384110145 450.3472301911172 752.7198384110145 434.5196839414083L752.7198384110145 434.5196839414083L752.7198384110145 338.8888971858547L786.0531716462332 338.8888971858547L786.0531716462332 434.5196839414083Q786.0531716462332 452.83565610971857 780.43974573683 464.9305634815254Q774.7973846423268 477.02547085333214 761.6897457920195 482.95718379883544Q748.5531717566122 488.8888967443388 725.8390514530994 488.8888967443388L725.8390514530994 488.8888967443388ZM905.6422916646002 488.8888967443388L867.1006251113786 488.8888967443388Q839.178171489863 488.8888967443388 823.5531715358542 475.028943081431Q807.9281715818454 461.1689894185232 807.9281715818454 434.31713764570816L807.9281715818454 434.31713764570816Q807.9281715818454 407.233804392093 823.5531715358542 393.3738507291852Q839.178171489863 379.5138970662775 867.1006251113786 379.5138970662775L867.1006251113786 379.5138970662775L905.6422916646002 379.5138970662775Q933.5647452861158 379.5138970662775 949.1897452401247 393.3738507291852Q964.8147451941334 407.233804392093 964.8147451941334 434.31713764570816L964.8147451941334 434.31713764570816Q964.8147451941334 461.1689894185232 949.1897452401247 475.028943081431Q933.5647452861158 488.8888967443388 905.6422916646002 488.8888967443388L905.6422916646002 488.8888967443388ZM867.1006251113786 464.9305634815254L867.1006251113786 464.9305634815254L905.6422916646002 464.9305634815254Q919.1839582914079 464.9305634815254 926.3598841962119 457.43635054062116Q933.5647452861158 449.94213759971694 933.5647452861158 434.31713764570816L933.5647452861158 434.31713764570816Q933.5647452861158 418.4606562108993 926.3598841962119 410.96644326999507Q919.1839582914079 403.4722303290909 905.6422916646002 403.4722303290909L905.6422916646002 403.4722303290909L867.1006251113786 403.4722303290909Q853.558958484571 403.4722303290909 846.354097394667 410.96644326999507Q839.178171489863 418.4606562108993 839.178171489863 434.31713764570816L839.178171489863 434.31713764570816Q839.178171489863 449.94213759971694 846.354097394667 457.43635054062116Q853.558958484571 464.9305634815254 867.1006251113786 464.9305634815254ZM1013.7730783833608 487.8472300807382L983.5647451389439 487.8472300807382L983.5647451389439 338.8888971858547L1013.7730783833608 338.8888971858547L1013.7730783833608 487.8472300807382ZM1060.648078245387 487.8472300807382L988.7730784569469 487.8472300807382L988.7730784569469 463.8888968179248L1060.648078245387 463.8888968179248Q1074.1897448721948 463.8888968179248 1081.3656707769987 456.4814894323206Q1088.5415966818027 449.10301723181647 1088.5415966818027 434.31713764570816L1088.5415966818027 434.31713764570816Q1088.5415966818027 419.29977657879977 1081.3656707769987 411.92130437829564Q1074.1897448721948 404.51389699269146 1060.648078245387 404.51389699269146L1060.648078245387 404.51389699269146L990.856411784148 404.51389699269146L990.856411784148 380.55556372987803L1060.648078245387 380.55556372987803Q1088.5415966818027 380.55556372987803 1104.1665966358116 394.29977665238573Q1119.7915965898203 408.04398957489343 1119.7915965898203 434.31713764570816L1119.7915965898203 434.31713764570816Q1119.7915965898203 460.3588042357228 1104.1665966358116 474.1030171582305Q1088.5415966818027 487.8472300807382 1060.648078245387 487.8472300807382L1060.648078245387 487.8472300807382ZM1168.7499297790478 487.8472300807382L1138.5415965346308 487.8472300807382L1138.5415965346308 338.8888971858547L1168.7499297790478 338.8888971858547L1168.7499297790478 380.55556372987803L1232.0890499629832 380.55556372987803Q1250.4339573163936 380.55556372987803 1258.8540961804981 389.6122766661831Q1267.303170229703 398.6689896024882 1267.303170229703 413.4838043736965L1267.303170229703 413.4838043736965L1267.303170229703 487.8472300807382L1237.094836985286 487.8472300807382L1237.094836985286 417.0138969558985Q1237.094836985286 404.51389699269146 1224.594837022079 404.51389699269146L1224.594837022079 404.51389699269146L1168.7499297790478 404.51389699269146L1168.7499297790478 487.8472300807382ZM1381.683956930067 487.8472300807382L1323.3506237684344 487.8472300807382Q1305.0057164150242 487.8472300807382 1296.5855775509194 478.6747764040331Q1288.1365035017147 469.5023227273279 1288.1365035017147 454.91898943691973L1288.1365035017147 454.91898943691973L1288.1365035017147 380.55556372987803L1318.3448367461317 380.55556372987803L1318.3448367461317 451.38889685471776Q1318.3448367461317 463.8888968179248 1330.8448367093386 463.8888968179248L1330.8448367093386 463.8888968179248L1374.189743989163 463.8888968179248Q1386.68974395237 463.8888968179248 1386.68974395237 451.38889685471776L1386.68974395237 451.38889685471776L1386.68974395237 380.55556372987803L1416.898077196787 380.55556372987803L1416.898077196787 454.91898943691973Q1416.898077196787 469.5023227273279 1408.4490031475823 478.6747764040331Q1399.9999290983776 487.8472300807382 1381.683956930067 487.8472300807382L1381.683956930067 487.8472300807382ZM1468.981410376816 487.8472300807382L1438.7730771323993 487.8472300807382L1438.7730771323993 338.8888971858547L1468.981410376816 338.8888971858547L1468.981410376816 487.8472300807382ZM1515.8564102388425 487.8472300807382L1443.9814104504023 487.8472300807382L1443.9814104504023 463.8888968179248L1515.8564102388425 463.8888968179248Q1529.39807686565 463.8888968179248 1536.574002770454 456.4814894323206Q1543.749928675258 449.10301723181647 1543.749928675258 434.31713764570816L1543.749928675258 434.31713764570816Q1543.749928675258 419.29977657879977 1536.574002770454 411.92130437829564Q1529.39807686565 404.51389699269146 1515.8564102388425 404.51389699269146L1515.8564102388425 404.51389699269146L1446.064743777603 404.51389699269146L1446.064743777603 380.55556372987803L1515.8564102388425 380.55556372987803Q1543.749928675258 380.55556372987803 1559.3749286292668 394.29977665238573Q1574.9999285832757 408.04398957489343 1574.9999285832757 434.31713764570816L1574.9999285832757 434.31713764570816Q1574.9999285832757 460.3588042357228 1559.3749286292668 474.1030171582305Q1543.749928675258 487.8472300807382 1515.8564102388425 487.8472300807382L1515.8564102388425 487.8472300807382Z " fill="#00aaaa" transform="matrix(0.5555555894639778,0,0,0.5555555894639778,0,70.06171784577556)"/></svg>