<svg xmlns="http://www.w3.org/2000/svg" version="1.1" width="100%" height="100%" viewBox="0 0 1000 600"><rect width="164" height="50" x="0" y="0" fill="#00000000"/><g><rect width="333.3333333333333" height="333.3333333333333" rx="13.333333333333334" ry="13.333333333333334" y="216.66664268856994" fill="#6a2cbc" transform="matrix(0.6428571652782215,0,0,0.6428571652782215,0,53.57142394708127)" x="194.44439697265625"/><path d="M402.3082369019229 418.19247079177956Q402.3082369019229 438.9084321200643 392.5957961092002 448.6208729127869Q382.8833553164775 458.3333137055097 362.69556297389977 458.3333137055097Q342.50777063132205 458.3333137055097 319.9138751316348 456.22063776268175L319.9138751316348 456.22063776268175L319.9138751316348 427.6995125345051Q336.4044845742637 428.75585050591906 353.7166902168812 428.75585050591906L353.7166902168812 428.75585050591906Q358.5875819739566 428.75585050591906 361.4338259524887 425.90960652738704Q364.2800699310207 423.063362548855 364.2800699310207 418.19247079177956L364.2800699310207 418.19247079177956L364.2800699310207 337.9107849643194L336.815282674258 337.9107849643194L336.815282674258 308.3333217647288L402.3082369019229 308.3333217647288L402.3082369019229 418.19247079177956Z " fill="#ffffff" transform="matrix(0.6428571652782215,0,0,0.6428571652782215,0,53.57142394708127)"/><path d="M693.5054186035829 418.19247079177956Q693.5054186035829 438.9084321200643 683.7929778108603 448.6208729127869Q674.0805370181376 458.3333137055097 653.8927446755599 458.3333137055097Q633.7049523329822 458.3333137055097 611.1110568332949 456.22063776268175L611.1110568332949 456.22063776268175L611.1110568332949 427.6995125345051Q627.6016662759238 428.75585050591906 644.9138719185413 428.75585050591906L644.9138719185413 428.75585050591906Q649.7847636756167 428.75585050591906 652.6310076541488 425.90960652738704Q655.4772516326808 423.063362548855 655.4772516326808 418.19247079177956L655.4772516326808 418.19247079177956L655.4772516326808 337.9107849643194L628.0124643759182 337.9107849643194L628.0124643759182 308.3333217647288L693.5054186035829 308.3333217647288L693.5054186035829 418.19247079177956ZM830.8293548873963 375.93895193522155L830.8293548873963 424.53049862026324Q830.8293548873963 440.37556819147255 821.8504821303778 449.35444094849106Q812.8716093733593 458.3333137055097 797.0265398021501 458.3333137055097L797.0265398021501 458.3333137055097L748.4349931171083 458.3333137055097Q732.5899235458991 458.3333137055097 723.6110507888806 449.35444094849106Q714.632178031862 440.37556819147255 714.632178031862 424.53049862026324L714.632178031862 424.53049862026324L714.632178031862 375.93895193522155Q714.632178031862 360.09388236401236 723.6110507888806 351.11500960699374Q732.5899235458991 342.1361368499752 748.4349931171083 342.1361368499752L748.4349931171083 342.1361368499752L797.0265398021501 342.1361368499752Q812.8716093733593 342.1361368499752 821.8504821303778 351.11500960699374Q830.8293548873963 360.09388236401236 830.8293548873963 375.93895193522155L830.8293548873963 375.93895193522155ZM793.8575258879083 421.36148470602143L793.8575258879083 379.1079658494634Q793.8575258879083 370.6572620781518 785.4068221165966 370.6572620781518L785.4068221165966 370.6572620781518L760.0547108026618 370.6572620781518Q751.6040070313503 370.6572620781518 751.6040070313503 379.1079658494634L751.6040070313503 379.1079658494634L751.6040070313503 421.36148470602143Q751.6040070313503 429.812188477333 760.0547108026618 429.812188477333L760.0547108026618 429.812188477333L785.4068221165966 429.812188477333Q793.8575258879083 429.812188477333 793.8575258879083 421.36148470602143L793.8575258879083 421.36148470602143ZM924.8434343432381 419.24880876319355L924.8434343432381 378.0516278780495Q924.8434343432381 374.8826139638076 922.7307584004101 372.76993802097974Q920.6180824575823 370.6572620781518 917.4490685433403 370.6572620781518L917.4490685433403 370.6572620781518L912.1673786862706 370.6572620781518Q903.3058768149646 370.6572620781518 896.8504781007683 371.5082009995686Q890.3950793865721 372.3591399209854 886.8152673723358 372.76993802097974L886.8152673723358 372.76993802097974L886.8152673723358 427.6995125345051L916.3927305719263 427.6995125345051Q924.8434343432381 427.6995125345051 924.8434343432381 419.24880876319355L924.8434343432381 419.24880876319355ZM886.8152673723358 308.3333217647288L886.8152673723358 346.361488735631Q907.2964869291951 342.1361368499752 922.7307584004101 342.1361368499752L922.7307584004101 342.1361368499752L930.1251242003078 342.1361368499752Q944.5030577001088 342.1361368499752 953.1591605214174 350.79223967128394Q961.8152633427263 359.4483424925927 961.8152633427263 373.8262759923937L961.8152633427263 373.8262759923937L961.8152633427263 422.41782267743537Q961.8152633427263 438.2628922486446 952.8363905857076 447.2417650056632Q943.8575178286891 456.22063776268175 928.0124482574798 456.22063776268175L928.0124482574798 456.22063776268175L849.8434383728476 456.22063776268175L849.8434383728476 308.3333217647288L886.8152673723358 308.3333217647288ZM1017.8011758276656 308.3333217647288L1017.8011758276656 346.361488735631Q1038.282395384525 342.1361368499752 1053.7166668557397 342.1361368499752L1053.7166668557397 342.1361368499752L1063.2237085984652 342.1361368499752Q1077.6016420982664 342.1361368499752 1086.257744919575 350.79223967128394Q1094.9138477408837 359.4483424925927 1094.9138477408837 373.8262759923937L1094.9138477408837 373.8262759923937L1094.9138477408837 456.22063776268175L1057.9420187413957 456.22063776268175L1057.9420187413957 378.0516278780495Q1057.9420187413957 374.8826139638076 1055.8293427985677 372.76993802097974Q1053.7166668557397 370.6572620781518 1050.5476529414982 370.6572620781518L1050.5476529414982 370.6572620781518L1043.1532871416002 370.6572620781518Q1035.113381470283 370.6572620781518 1028.481926427518 371.5082009995686Q1021.8211286633242 372.3591399209854 1017.8011758276656 372.76993802097974L1017.8011758276656 372.76993802097974L1017.8011758276656 456.22063776268175L980.8293468281773 456.22063776268175L980.8293468281773 308.3333217647288L1017.8011758276656 308.3333217647288ZM1158.2941260257207 427.6995125345051L1165.6884918256187 427.6995125345051Q1176.8974114111775 427.6995125345051 1191.0406031395532 423.4741606488493L1191.0406031395532 423.4741606488493L1191.0406031395532 344.2488127928031L1228.0124321390417 344.2488127928031L1228.0124321390417 456.22063776268175L1195.2659550252092 456.22063776268175L1193.1532790823812 445.65725804854225Q1183.2354392396614 452.2006849270231 1172.7600876898064 455.28167067698047Q1162.3140788613796 458.3333137055097 1155.1251121114792 458.3333137055097L1155.1251121114792 458.3333137055097L1145.6180703687533 458.3333137055097Q1131.2401368689525 458.3333137055097 1122.5840340476439 449.6772108842009Q1113.9279312263352 441.02110806289215 1113.9279312263352 426.6431745630912L1113.9279312263352 426.6431745630912L1113.9279312263352 344.2488127928031L1150.8997602258232 344.2488127928031L1150.8997602258232 420.30514673460743Q1150.8997602258232 423.4741606488493 1153.0124361686512 425.5868365916772Q1155.1251121114792 427.6995125345051 1158.2941260257207 427.6995125345051L1158.2941260257207 427.6995125345051ZM1324.1391875377112 419.24880876319355L1324.1391875377112 378.0516278780495Q1324.1391875377112 374.8826139638076 1322.0265115948832 372.76993802097974Q1319.9138356520552 370.6572620781518 1316.7448217378133 370.6572620781518L1316.7448217378133 370.6572620781518L1311.4631318807437 370.6572620781518Q1302.601630009438 370.6572620781518 1296.1462312952413 371.5082009995686Q1289.690832581045 372.3591399209854 1286.1110205668087 372.76993802097974L1286.1110205668087 372.76993802097974L1286.1110205668087 427.6995125345051L1315.6884837663993 427.6995125345051Q1324.1391875377112 427.6995125345051 1324.1391875377112 419.24880876319355L1324.1391875377112 419.24880876319355ZM1286.1110205668087 308.3333217647288L1286.1110205668087 346.361488735631Q1306.592240123668 342.1361368499752 1322.0265115948832 342.1361368499752L1322.0265115948832 342.1361368499752L1329.4208773947807 342.1361368499752Q1343.798810894582 342.1361368499752 1352.4549137158906 350.79223967128394Q1361.1110165371992 359.4483424925927 1361.1110165371992 373.8262759923937L1361.1110165371992 373.8262759923937L1361.1110165371992 422.41782267743537Q1361.1110165371992 438.2628922486446 1352.1321437801807 447.2417650056632Q1343.1532710231622 456.22063776268175 1327.3082014519528 456.22063776268175L1327.3082014519528 456.22063776268175L1249.1391915673207 456.22063776268175L1249.1391915673207 308.3333217647288L1286.1110205668087 308.3333217647288Z " fill="#6a2cbc" transform="matrix(0.6428571652782215,0,0,0.6428571652782215,0,53.57142394708127)"/></g></svg>